<?xml version="1.0" standalone="no"?>
<svg xmlns="http://www.w3.org/2000/svg" viewBox="0 0 992.000000 1040.000000">
<g transform="translate(0.000000,1040.000000) scale(0.100000,-0.100000)"
fill="#000000" stroke="none">
<path d="M6475 9596 c-69 -69 -127 -136 -130 -149 -4 -14 -19 -34 -34 -45 -16
-11 -53 -58 -83 -104 -108 -164 -127 -202 -145 -292 l-17 -86 -185 6 c-245 8
-449 -12 -571 -55 -47 -17 -105 -35 -129 -42 -25 -6 -56 -23 -71 -38 -14 -16
-37 -32 -50 -36 -69 -21 -260 -127 -260 -144 0 -10 -56 -41 -74 -41 -9 0 -38
16 -64 35 -80 61 -185 126 -237 148 -27 11 -52 24 -55 28 -5 6 -53 27 -160 68
-73 28 -311 68 -331 55 -16 -9 23 -255 52 -329 11 -27 26 -86 34 -131 21 -123
36 -176 56 -202 10 -13 25 -46 34 -73 9 -27 28 -70 42 -94 l25 -45 -36 -41
c-51 -60 -116 -198 -116 -247 0 -46 32 -92 84 -120 131 -70 191 -95 248 -102
61 -7 117 -26 129 -42 3 -5 46 -13 95 -19 87 -11 214 -56 214 -77 0 -5 -33
-37 -72 -71 -111 -94 -179 -178 -262 -327 -46 -81 -65 -130 -25 -64 12 19 41
58 65 87 24 28 44 55 44 60 0 29 194 175 312 234 69 35 157 69 179 69 8 0 40
-7 69 -16 l54 -16 -25 -19 c-13 -10 -46 -32 -74 -48 -92 -53 -170 -134 -239
-249 -35 -59 -71 -124 -80 -145 -15 -37 -46 -173 -46 -199 1 -20 25 29 50 102
32 91 110 208 186 279 77 72 242 188 339 239 l70 37 131 0 c118 0 134 -2 154
-20 31 -28 48 -64 70 -153 26 -101 25 -112 -4 -112 -54 0 -56 -32 -13 -204 16
-64 28 -92 42 -100 31 -17 32 -21 44 -160 7 -72 13 -144 15 -161 10 -88 -30
-397 -68 -525 -45 -155 -59 -188 -164 -401 -72 -145 -121 -220 -231 -349 -31
-36 -78 -97 -106 -134 -27 -38 -61 -81 -75 -96 -14 -15 -32 -39 -40 -55 -8
-15 -50 -60 -93 -99 -73 -67 -156 -159 -237 -265 -45 -59 -150 -218 -150 -227
0 -4 -15 -39 -34 -78 -75 -155 -118 -285 -181 -556 -21 -86 -56 -273 -76 -405
-20 -128 -41 -428 -34 -473 3 -15 9 -101 15 -192 12 -197 41 -385 76 -495 24
-74 96 -233 143 -315 11 -19 34 -66 52 -105 18 -38 43 -87 56 -107 12 -21 23
-43 23 -49 0 -6 16 -30 34 -53 76 -92 110 -221 69 -259 -18 -15 -124 -47 -160
-47 -33 0 -166 64 -228 110 -69 50 -135 110 -135 122 0 4 -23 36 -51 70 -54
68 -103 151 -113 195 -4 15 -18 49 -31 75 -30 57 -52 142 -84 324 -29 160 -2
419 71 699 16 61 35 134 43 163 7 29 18 58 23 65 5 7 13 28 17 47 4 19 23 73
41 119 19 46 40 107 48 135 8 28 19 65 24 81 6 17 25 73 42 125 18 52 49 142
70 200 55 153 49 135 121 353 89 273 103 361 91 582 -12 220 -38 341 -98 460
-95 187 -212 322 -353 406 -50 29 -91 57 -91 61 0 4 -8 8 -18 8 -9 0 -35 10
-57 22 -46 25 -179 55 -282 64 -139 13 -395 -47 -438 -102 -5 -7 -28 -22 -51
-33 -78 -40 -166 -155 -205 -269 -56 -164 -69 -345 -29 -419 52 -98 123 -138
225 -127 150 17 246 183 195 340 -6 19 -12 69 -13 112 -1 70 1 81 26 114 45
58 135 90 272 96 200 8 303 -30 435 -158 157 -154 218 -327 219 -624 1 -121
-43 -386 -80 -477 -10 -28 -19 -61 -19 -75 0 -14 -8 -41 -19 -62 -10 -20 -28
-71 -40 -112 -22 -72 -45 -136 -130 -370 -22 -58 -47 -132 -56 -165 -9 -33
-28 -94 -41 -135 -13 -41 -32 -121 -44 -177 -11 -56 -29 -125 -39 -155 -26
-72 -61 -218 -72 -303 -5 -38 -14 -81 -21 -95 -14 -32 -28 -192 -33 -390 -3
-153 -3 -156 32 -275 42 -141 87 -261 106 -284 8 -9 24 -34 35 -56 11 -22 29
-49 41 -59 12 -11 21 -24 21 -30 0 -13 230 -241 280 -278 19 -14 55 -44 80
-67 27 -25 94 -67 165 -101 176 -87 192 -89 769 -97 265 -3 494 -3 508 0 103
26 61 164 -66 212 -73 28 -136 122 -136 203 0 21 -5 64 -11 96 -12 68 9 264
41 381 40 144 49 389 30 750 -6 104 -20 242 -30 305 -36 214 -45 339 -28 394
8 28 22 55 31 60 32 20 42 -9 49 -147 3 -73 11 -172 18 -222 17 -139 29 -381
30 -582 0 -132 7 -237 25 -380 13 -109 29 -272 35 -363 12 -202 22 -269 54
-385 33 -120 52 -162 94 -210 44 -49 86 -78 132 -93 38 -12 226 -19 236 -9 20
20 -103 160 -179 205 -86 51 -149 273 -179 631 -9 111 -9 166 5 325 10 105 20
313 23 461 3 149 10 297 15 330 5 33 9 134 9 224 0 90 3 161 8 157 25 -26 92
-599 112 -971 5 -93 14 -208 19 -255 13 -109 31 -394 31 -487 0 -80 40 -281
71 -360 28 -69 76 -117 130 -130 24 -6 92 -23 150 -37 190 -46 220 -35 157 59
-22 33 -49 70 -60 82 -23 25 -129 77 -177 88 -38 8 -44 19 -75 137 -39 149
-46 377 -49 1488 -2 1090 1 1173 48 1254 27 48 75 185 75 216 0 11 7 37 16 58
9 20 19 65 24 99 5 39 23 92 49 146 23 46 41 89 41 95 0 6 16 61 35 122 35
112 46 176 66 385 5 61 17 133 25 161 8 29 16 78 17 110 2 80 -21 275 -43 354
-25 93 -97 273 -141 356 -21 39 -41 91 -45 115 -6 39 -28 94 -136 343 -31 71
-63 177 -77 253 -7 35 -5 45 10 59 24 21 24 33 -1 130 -34 131 -40 143 -77
150 -18 3 -35 14 -37 23 -15 48 -56 236 -56 255 0 18 30 56 45 56 10 0 320
192 323 200 2 5 25 25 52 45 46 34 50 35 137 35 58 0 140 -10 234 -29 79 -15
173 -34 209 -40 93 -17 252 -97 320 -161 9 -8 30 -27 46 -42 16 -15 43 -41 59
-58 17 -16 34 -30 38 -30 32 0 -126 162 -232 238 -32 23 -85 54 -117 68 -33
14 -81 37 -109 51 -77 39 -138 52 -298 65 -88 7 -146 16 -144 22 2 5 20 23 40
40 l37 29 232 5 c190 3 246 1 301 -12 78 -18 240 -93 310 -144 35 -25 47 -30
47 -18 0 9 -12 23 -27 33 -16 9 -46 31 -68 48 -61 48 -204 112 -291 130 -45
10 -156 20 -258 23 l-180 7 60 65 c32 35 83 87 113 115 29 27 81 86 114 129
33 44 82 102 109 129 26 27 48 56 48 64 0 7 7 27 15 44 34 65 -19 139 -133
184 -23 10 -42 21 -42 25 0 4 -12 11 -27 15 -15 3 -30 10 -33 13 -3 4 -14 12
-25 18 -18 10 -20 22 -21 120 -1 64 -8 136 -17 174 -9 36 -17 78 -17 93 0 38
-105 348 -142 422 -17 33 -36 71 -42 85 -22 48 -42 37 -171 -94z m-692 -1782
c30 -11 28 -40 -8 -115 -19 -40 -35 -84 -35 -96 0 -13 -5 -23 -10 -23 -17 0
-163 80 -187 103 -30 27 -29 37 10 74 63 60 96 75 158 69 31 -3 63 -8 72 -12z"/>
</g>
<g transform="translate(0.000000,1040.000000) scale(0.100000,-0.100000)"
fill="#ffd700" stroke="none">
<path d="M6475 8683 c-129 -27 -214 -52 -283 -84 l-83 -38 45 -89 c47 -94 96
-245 96 -298 0 -47 11 -94 22 -94 17 0 160 153 198 212 39 60 69 156 91 289 7
42 9 83 6 92 -6 17 -43 21 -92 10z"/>
<path d="M5954 8424 c-30 -30 -68 -75 -84 -100 -51 -73 -170 -345 -170 -387 0
-20 18 -21 145 -7 118 14 221 42 319 88 l79 37 -46 53 c-54 61 -116 185 -148
295 -12 42 -26 77 -32 77 -5 0 -33 -25 -63 -56z"/>
<path d="M4760 8198 c-75 -9 -222 -62 -292 -105 -32 -19 -58 -37 -58 -41 1
-14 167 -179 237 -236 87 -70 190 -113 293 -122 43 -4 71 -3 68 2 -2 5 -25 52
-50 104 -51 105 -76 194 -84 297 -3 37 -7 78 -10 90 -5 24 -4 24 -104 11z"/>
<path d="M4961 8199 c-1 -3 6 -20 15 -37 41 -83 78 -282 72 -396 l-3 -71 50 4
c67 4 119 25 280 111 87 47 135 78 135 89 0 14 2 14 11 1 6 -8 9 -10 7 -4 -10
33 -215 184 -311 229 -105 50 -226 83 -236 66 -7 -11 -10 -11 -14 0 -3 8 -6
11 -6 8z"/>
<path d="M6023 7153 c-13 -19 -326 -96 -415 -102 -4 -1 -12 -10 -18 -20 -12
-23 31 -241 55 -277 14 -22 55 -39 55 -23 0 5 19 9 43 9 48 0 145 24 286 70
74 24 96 28 103 18 5 -9 8 -7 8 7 0 11 9 28 20 38 25 21 25 28 0 124 -40 149
-46 161 -89 165 -23 2 -43 -2 -48 -9z"/>
</g>
</svg>

